<svg viewBox="0 0 32 32" xmlns="http://www.w3.org/2000/svg"><path fill="#bee74b" d="m2.875 6c-1.554687 0-2.875 1.253906-2.875 2.8125v14.375c0 1.558594 1.320313 2.8125 2.875 2.8125h26.25c1.554688 0 2.875-1.253906 2.875-2.8125v-14.375c0-1.558594-1.320312-2.8125-2.875-2.8125zm0 2h26.25c.515625 0 .875.382813.875.8125v14.375c0 .429688-.359375.8125-.875.8125h-26.25c-.515625 0-.875-.382812-.875-.8125v-14.375c0-.429687.359375-.8125.875-.8125zm2.125 3v10h3v-6.65625l3 3.96875 3-3.96875v6.65625h3v-10h-3l-3 4-3-4zm17 0v5h-3l4.5 5 4.5-5h-3v-5z"/></svg>
