<svg clip-rule="evenodd" fill-rule="evenodd" stroke-linecap="round" stroke-linejoin="round" stroke-miterlimit="10" viewBox="0 0 24 24" xmlns="http://www.w3.org/2000/svg"><g fill="none"><path d="m151.257 48.925h24.811v26.503h-24.811z" transform="matrix(.96731789291 0 0 .90554551218 -146.31364309 -44.3034325084)"/><g stroke="#000" transform="matrix(.39536912955 0 0 .39536912955 -1.130468 -2.23931176974)"><g stroke-width="2.81"><path d="m24.368 55.495c-9.088 0-16.456-7.368-16.456-16.456 0-9.089 7.368-16.456 16.456-16.456"/><path d="m25.241 55.495h12.001"/><path d="m37.535 48.502c1.931.081 3.431 1.713 3.35 3.644s-1.712 3.431-3.643 3.35"/><path d="m37.768 41.505c1.931.081 3.431 1.713 3.35 3.644s-1.712 3.431-3.644 3.35"/><path d="m37.902 41.509c1.926.155 3.363 1.843 3.208 3.77s-1.843 3.363-3.77 3.208"/><path d="m38.246 34.468c1.929.123 3.393 1.788 3.269 3.717s-1.788 3.392-3.717 3.268"/><path d="m36.022 17.514c1.391-1.343 3.606-1.305 4.949.086 1.343 1.39 1.305 3.606-.086 4.949"/><path d="m60.618 27.468c1.933 0 3.5 1.567 3.5 3.5s-1.567 3.5-3.5 3.5" transform="translate(-5.62063)"/></g><path d="m38.283 34.468h22.335" stroke-width="3.17" transform="matrix(.755928 0 0 1 9.17459 0)"/><path d="m60.618 27.468h-27.79" stroke-width="3.17" transform="matrix(.755928 0 0 1 9.17459 0)"/><path d="m38.672 24.507 2.214-1.958" stroke-width="2.81"/><path d="m33.703 19.282c-2.144 1.952-5.168 3.373-9.522 3.301" stroke-width="2.81"/><path d="m36.022 17.514-2.38 1.821" stroke-width="2.81"/></g></g></svg>