<svg viewBox="0 0 72 72" xmlns="http://www.w3.org/2000/svg"><g style="fill:none;stroke:currentColor;stroke-linecap:round;stroke-linejoin:round;stroke-miterlimit:10;stroke-width:2"><path d="m24.3679 55.4945c-9.0883 0-16.4558-7.3675-16.4558-16.4558s7.3675-16.4558 16.4558-16.4558"/><path d="m25.2415 55.4945h12"/><path d="m37.5349 48.5022c1.9313.081 3.4313 1.7123 3.3502 3.6436-.081 1.9313-1.7123 3.4313-3.6436 3.3502"/><path d="m37.7678 41.5052c1.9313.081 3.4313 1.7123 3.3502 3.6436-.081 1.9313-1.7123 3.4313-3.6436 3.3502"/><path d="m37.9016 41.5093c1.9268.155 3.3631 1.8426 3.2081 3.7694s-1.8426 3.3631-3.7694 3.2081"/><path d="m38.2461 34.4677c1.929.1237 3.3925 1.7878 3.2688 3.7168s-1.7878 3.3925-3.7168 3.2688"/><path d="m36.0224 17.5139c1.3904-1.3429 3.6061-1.3044 4.949.086s1.3044 3.6061-.086 4.949"/><path d="m60.6184 27.4677c1.933 0 3.5 1.567 3.5 3.5s-1.567 3.5-3.5 3.5"/><path d="m38.2831 34.4677h22.3353"/><path d="m60.6184 27.4677h-27.7906"/><path d="m38.6717 24.5068 2.2138-1.958"/><path d="m33.7028 19.2815c-2.1439 1.9526-5.1677 3.3734-9.5218 3.3013"/><path d="m36.0224 17.5139-2.3801 1.8214"/></g></svg>
