<svg clip-rule="evenodd" fill-rule="evenodd" stroke-linejoin="round" stroke-miterlimit="10" viewBox="0 0 24 24" xmlns="http://www.w3.org/2000/svg"><g fill="none"><path d="m151.257 48.925h24.811v26.503h-24.811z" transform="matrix(.96731789291 0 0 .90554551218 -146.31364309 -44.3034325084)"/><path d="m19.582 55.606c.484.178 1.03.297 1.575.297.849 0 1.697-.297 2.425-.772l30-15.979.303-.297c.788-.772 1.212-1.723 1.212-2.792s-.424-2.079-1.212-2.792l-.303-.297-30-16.098c-1.091-.832-2.667-1.01-4-.475-1.516.594-2.485 2.079-2.485 3.683v31.839c0 1.604.969 3.089 2.485 3.683z" stroke="#000" stroke-width="2.99" transform="matrix(.4521879341 0 0 .4521879341 -3.32243439 -4.27871551328)"/></g></svg>