<svg viewBox="0 0 18 18" xmlns="http://www.w3.org/2000/svg"><g fill="currentColor" transform="translate(-1 -1)"><path d="m17 5.884c-.214.22-.451.419-.7.585-.23.153-.54.091-.694-.139-.153-.229-.091-.54.139-.693.658-.438 1.141-1.116 1.255-1.637 0-.276.224-.5.5-.5s.5.224.5.5v5.5c0 .276-.224.5-.5.5s-.5-.224-.5-.5z"/><path d="m10.864 14.896c-.097.097-.221.146-.371.146s-.27-.047-.359-.14c-.089-.098-.134-.223-.134-.378v-7.916c0-.167.049-.303.146-.408.102-.106.229-.158.383-.158.155 0 .28.052.378.158.101.105.152.241.152.408v3.054h.024c.203-.365.481-.651.834-.858.357-.207.756-.31 1.199-.31.799 0 1.444.298 1.935.895.491.596.736 1.389.736 2.379 0 .994-.245 1.789-.736 2.385-.491.593-1.142.889-1.954.889-.454 0-.86-.104-1.217-.311-.353-.207-.635-.497-.845-.87h-.025v.663c0 .151-.048.274-.146.372zm2.027-.785c.559 0 1.002-.209 1.326-.627.325-.422.487-.994.487-1.716 0-.718-.162-1.288-.487-1.71-.324-.422-.767-.633-1.326-.633-.54 0-.982.217-1.327.651-.341.43-.511.994-.511 1.692 0 .702.17 1.268.511 1.698.345.43.787.645 1.327.645z"/><path d="m2.571 15c-.165 0-.302-.045-.412-.135-.106-.093-.159-.21-.159-.348 0-.082.023-.184.07-.306l2.944-7.679c.135-.355.385-.532.749-.532.342 0 .581.175.717.526l2.95 7.685c.047.122.07.224.07.306 0 .138-.055.255-.165.348-.106.09-.241.135-.406.135-.271 0-.457-.141-.558-.422l-.813-2.191h-3.623l-.806 2.191c-.101.281-.287.422-.558.422zm1.694-3.548h2.97l-1.466-4.026h-.038z"/></g></svg>
