<svg clip-rule="evenodd" fill-rule="evenodd" stroke-linejoin="round" stroke-miterlimit="2" viewBox="0 0 24 24" xmlns="http://www.w3.org/2000/svg"><g transform="matrix(.750062 0 0 .947867 3.00025 .626208)"><path d="m22.269 19.385h-20.538c-.949 0-1.73-.781-1.73-1.73v-11.31c0-.949.781-1.73 1.73-1.73h20.538c.949 0 1.73.781 1.73 1.73v11.309c0 .949-.781 1.731-1.73 1.731z" fill="#fff"/><path d="m22.269 19.385h-20.538c-.949 0-1.73-.781-1.73-1.73v-11.31c0-.949.781-1.73 1.73-1.73h20.538c.949 0 1.73.781 1.73 1.73v11.308.001c0 .949-.781 1.73-1.73 1.73zm-16.5-3.462v-4.5l2.308 2.885 2.307-2.885v4.5h2.308v-7.845h-2.308l-2.307 2.885-2.308-2.885h-2.308v7.847zm15.462-3.923h-2.308v-3.923h-2.307v3.923h-2.308l3.461 4.039z" fill="#5880c9" fill-rule="nonzero"/></g></svg>