<svg clip-rule="evenodd" fill-rule="evenodd" stroke-miterlimit="10" viewBox="0 0 24 24" xmlns="http://www.w3.org/2000/svg"><path d="m0-46.768h30.399c4.52 0 8.184 3.665 8.184 8.185v30.398c0 4.52-3.664 8.185-8.184 8.185h-30.399c-4.52 0-8.185-3.665-8.185-8.185v-30.398c0-4.52 3.665-8.185 8.185-8.185" fill="#57595a" transform="matrix(.38487864124 0 0 .38487864124 6.15023661936 20.999985618)"/><path d="m13.017-8.035s-7.034 7.317-7.094 14.388c.948 7.291 4.017 5.826 7.094 21.079 3.361-1.295 10.145-10.171 8.778-22.696-1.779-8.94-8.778-12.771-8.778-12.771z" fill="#cbc8bf" stroke="#878787" transform="matrix(.23306907885 .30628494606 .30628494606 -.23306907885 6.37418962396 9.70365566236)"/><path d="m0 25.11s7.787-6.247 16.259-10.549c13.398-6.805 16.878-14.561 16.878-14.561s-3.872 7.254-17.269 14.061c-8.472 4.3-16.26 10.549-16.26 10.549z" fill="#9d9c9c" transform="matrix(.38487864124 0 0 .38487864124 4.94598926268 7.62996815068)"/></svg>