<svg preserveAspectRatio="xMidYMid meet" viewBox="0 0 32 32" xmlns="http://www.w3.org/2000/svg"><path d="m5.902 27.201-2.247-25.201h24.69l-2.25 25.197-10.11 2.803z" fill="#e44f26"/><path d="m16 27.858 8.17-2.265 1.922-21.532h-10.092z" fill="#f1662a"/><path d="m16 13.407h-4.09l-.282-3.165h4.372v-3.091h-7.75l.074.83.759 8.517h6.917z" fill="#ebebeb"/><path d="m16 21.434-.014.004-3.442-.929-.22-2.465h-3.103l.433 4.852 6.332 1.758.014-.004z" fill="#ebebeb"/><g fill="#fff"><path d="m15.989 13.407v3.091h3.806l-.358 4.009-3.448.93v3.216l6.337-1.757.046-.522.726-8.137.076-.83z"/><path d="m15.989 7.151v3.091h7.466l.062-.694.141-1.567.074-.83z"/></g></svg>